<svg width="18" height="18" viewBox="0 0 18 18" fill="none" xmlns="http://www.w3.org/2000/svg">
<path fill-rule="evenodd" clip-rule="evenodd" d="M18 9.00005C18 10.9767 17.3628 12.8044 16.2827 14.2892C15.1775 15.8081 13.6088 16.968 11.7844 17.561C10.9077 17.846 9.97176 18 9 18C8.02824 18 7.09707 17.8468 6.22222 17.5632C4.39728 16.9716 2.82783 15.8129 1.72165 14.295C0.640237 12.8111 0.00164427 10.9838 0 9.00745V9.00005C0 7.0261 0.635407 5.20064 1.71302 3.71699C2.81684 2.19696 4.38464 1.03579 6.20845 0.441283C7.08731 0.15487 8.02557 0 9 0C9.97443 0 10.8978 0.152404 11.7706 0.4345C13.5961 1.02459 15.1665 2.18196 16.2739 3.6989C17.3566 5.18204 17.9967 7.00883 17.9999 8.98505C18 8.99008 18 8.99502 18 9.00005Z" fill="url(#paint0_radial_63_7726)"/>
<path d="M11.7706 0.434509L10.8224 3.3681C11.998 3.74804 13.0497 4.51119 13.7838 5.51676L16.2739 3.69891C15.1665 2.18196 13.5961 1.0246 11.7706 0.434509ZM6.20845 0.441292C4.38464 1.0358 2.81684 2.19697 1.71302 3.717L4.20747 5.52858C4.93917 4.52115 5.98904 3.75543 7.16387 3.37252L6.20845 0.441292ZM17.9999 8.98506L14.917 8.99122V9.00006C14.917 10.2598 14.5271 11.4615 13.7895 12.4754L16.2827 14.2892C17.3628 12.8044 18 10.9767 18 9.00006C18 8.99502 18 8.99009 17.9999 8.98506ZM3.083 9.00499L0 9.00746C0.00164427 10.9838 0.640237 12.8111 1.72165 14.295L4.21323 12.4792C3.47485 11.4661 3.08403 10.2647 3.083 9.00499ZM10.8314 14.629C10.2434 14.8201 9.62719 14.917 9 14.917C8.37282 14.917 7.75961 14.8206 7.17291 14.6305L6.22222 17.5632C7.09707 17.8468 8.0307 18 9 18C9.9693 18 10.9077 17.846 11.7844 17.561L10.8314 14.629Z" fill="#025FFA"/>
<path d="M11.7706 0.434509L10.8224 3.3681C11.998 3.74804 13.0497 4.51119 13.7838 5.51676L16.2739 3.69891C15.1665 2.18196 13.5961 1.0246 11.7706 0.434509ZM6.20845 0.441292C4.38464 1.0358 2.81684 2.19697 1.71302 3.717L4.20747 5.52858C4.93917 4.52115 5.98904 3.75543 7.16387 3.37252L6.20845 0.441292ZM17.9999 8.98506L14.917 8.99122V9.00006C14.917 10.2598 14.5271 11.4615 13.7895 12.4754L16.2827 14.2892C17.3628 12.8044 18 10.9767 18 9.00006C18 8.99502 18 8.99009 17.9999 8.98506ZM3.083 9.00499L0 9.00746C0.00164427 10.9838 0.640237 12.8111 1.72165 14.295L4.21323 12.4792C3.47485 11.4661 3.08403 10.2647 3.083 9.00499ZM10.8314 14.629C10.2434 14.8201 9.62719 14.917 9 14.917C8.37282 14.917 7.75961 14.8206 7.17291 14.6305L6.22222 17.5632C7.09707 17.8468 8.0307 18 9 18C9.9693 18 10.9077 17.846 11.7844 17.561L10.8314 14.629Z" fill="url(#paint1_linear_63_7726)"/>
<path d="M7.25132 7.45446C7.22856 7.42366 7.25086 7.3804 7.2895 7.3804H12.6225C12.6517 7.3804 12.6739 7.40628 12.6691 7.43469L12.4487 8.73491C12.4449 8.75737 12.4252 8.77382 12.4021 8.77382H8.25044C8.23535 8.77382 8.22116 8.76671 8.21227 8.75468L7.25132 7.45446Z" fill="#025FFA"/>
<path d="M7.25132 7.45446C7.22856 7.42366 7.25086 7.3804 7.2895 7.3804H12.6225C12.6517 7.3804 12.6739 7.40628 12.6691 7.43469L12.4487 8.73491C12.4449 8.75737 12.4252 8.77382 12.4021 8.77382H8.25044C8.23535 8.77382 8.22116 8.76671 8.21227 8.75468L7.25132 7.45446Z" fill="url(#paint2_linear_63_7726)"/>
<path d="M10.7488 10.5455C10.7716 10.5763 10.7493 10.6196 10.7106 10.6196H5.3776C5.3484 10.6196 5.3262 10.5937 5.33101 10.5653L5.55141 9.26508C5.55522 9.24262 5.57492 9.22616 5.59801 9.22616H9.74967C9.76476 9.22616 9.77895 9.23327 9.78784 9.24531L10.7488 10.5455Z" fill="#025FFA"/>
<path d="M10.7488 10.5455C10.7716 10.5763 10.7493 10.6196 10.7106 10.6196H5.3776C5.3484 10.6196 5.3262 10.5937 5.33101 10.5653L5.55141 9.26508C5.55522 9.24262 5.57492 9.22616 5.59801 9.22616H9.74967C9.76476 9.22616 9.77895 9.23327 9.78784 9.24531L10.7488 10.5455Z" fill="url(#paint3_linear_63_7726)"/>
<defs>
<radialGradient id="paint0_radial_63_7726" cx="0" cy="0" r="1" gradientUnits="userSpaceOnUse" gradientTransform="translate(0.879426 -3.672) rotate(55.2766) scale(42.868 58.6954)">
<stop offset="0.124131" stop-color="#253743"/>
<stop offset="0.657125" stop-color="#030C18"/>
</radialGradient>
<linearGradient id="paint1_linear_63_7726" x1="2.16514" y1="3.10629" x2="15.291" y2="15.4471" gradientUnits="userSpaceOnUse">
<stop stop-color="#C9FF6B"/>
<stop offset="1" stop-color="#8CCF18"/>
</linearGradient>
<linearGradient id="paint2_linear_63_7726" x1="6.21318" y1="7.87309" x2="8.10784" y2="11.8119" gradientUnits="userSpaceOnUse">
<stop stop-color="#C9FF6B"/>
<stop offset="1" stop-color="#8CCF18"/>
</linearGradient>
<linearGradient id="paint3_linear_63_7726" x1="6.21318" y1="7.87309" x2="8.10784" y2="11.8119" gradientUnits="userSpaceOnUse">
<stop stop-color="#C9FF6B"/>
<stop offset="1" stop-color="#8CCF18"/>
</linearGradient>
</defs>
</svg>
