<svg width="16" height="8" viewBox="0 0 16 8" fill="none" xmlns="http://www.w3.org/2000/svg">
<path d="M4.18774 0.584761C4.13812 0.516705 4.18673 0.421104 4.27096 0.421104H15.897C15.9607 0.421104 16.0091 0.478286 15.9986 0.541075L15.5181 3.41423C15.5098 3.46386 15.4668 3.50023 15.4165 3.50023H6.36583C6.33293 3.50023 6.302 3.4845 6.28262 3.45791L4.18774 0.584761Z" fill="#14151C"/>
<path d="M11.8123 7.41524C11.8619 7.48329 11.8133 7.5789 11.729 7.5789H0.10301C0.0393489 7.5789 -0.00906401 7.52171 0.00143613 7.45893L0.481912 4.58577C0.490212 4.53614 0.533164 4.49977 0.583486 4.49977H9.63417C9.66707 4.49977 9.698 4.5155 9.71738 4.54209L11.8123 7.41524Z" fill="#14151C"/>
</svg>
